<svg xmlns="http://www.w3.org/2000/svg" viewBox="0 0 320.92 320.27"><defs><style>.cls-1{fill:#4e51fc;}.cls-2{fill:#90b2f9;}.cls-3{fill:#7d96f3;}.cls-4{fill:#e7edfc;}.cls-5{fill:#bccffa;}.cls-6{fill:#e8eefc;}.cls-7{fill:#e2e9fc;}.cls-8{fill:#bdcffa;}.cls-9{fill:#e4ebfc;}.cls-10{fill:#c0d2fa;}.cls-11{fill:#dde7fc;}.cls-12{fill:#cfddfc;}.cls-13{fill:#09005d;}.cls-14{fill:#c6d1f9;}.cls-15{fill:#32368b;}.cls-16{fill:#dfe7fd;}.cls-17{fill:#dee6fd;}.cls-18{fill:#dde5fd;}.cls-19{fill:#dbe4fd;}.cls-20{fill:#dbe3fd;}.cls-21{fill:#dae3fd;}.cls-22{fill:#f7d94c;}.cls-23{fill:#e1e8fd;}.cls-24{fill:#dce4fd;}.cls-25{fill:#484af1;}.cls-26{fill:#4042e2;}.cls-27{fill:#ccc65e;}.cls-28{fill:#0f056e;}.cls-29{fill:#100673;}.cls-30{fill:#936644;}.cls-31{fill:#4548ec;}.cls-32{fill:#120879;}.cls-33{fill:#0f056f;}.cls-34{fill:#936c3e;}.cls-35{fill:#0c0366;}.cls-36{fill:#664833;}.cls-37{fill:#0c0265;}.cls-38{fill:#ffff81;}.cls-39{fill:#ba9e27;}.cls-40{fill:#4b4ef7;}</style></defs><title>login</title><g id="Layer_2" data-name="Layer 2"><g id="OBJECTS"><path class="cls-1" d="M302.94,85.28l.15,5a38.26,38.26,0,0,1,1.46,11.77c-.16,16.23.18,32.46-.17,48.69.07,3.13.15,6.25,0,9.38.09,3.65.12,7.3,0,11,.07,2.4.1,4.81,0,7.22.09,3.59.11,7.18,0,10.78.07,2.09.09,4.19,0,6.28q.17,5.38,0,10.77c.08,2.39.09,4.79,0,7.18.09,3.59.11,7.18,0,10.77.07,2.09.09,4.18,0,6.28q.17,5.37,0,10.76c.07,2.39.09,4.78,0,7.17.09,3.28.1,6.57,0,9.85.08,2.39.1,4.77,0,7.16.09,3.28.1,6.57,0,9.85.09,2.39.1,4.78,0,7.17.09,3.6.11,7.19,0,10.79.09,2.12.08,4.23,0,6.35.15,3.71.11,7.42,0,11.13,0,8.18-.95,9.24-9.1,9.15-11.46-.13-22.93.44-34.39-.31q-41.92-.09-83.86-.16-30.95,0-61.91,0c-3.06,0-5.66-.28-6.32-3.93-1.58-2-1.47-4.36-1.47-6.69,0-15-.07-30,0-44.95.4-3.16.06-6.34.13-9.51.25-5.37-.32-10.73,0-16.1,0-16.84-.44-33.68.2-50.51,2.26-4.62,5.24-6.62,10.15-6,4.24.59,7.5-.35,9.77-4.09,2-1.2,4-3,6.26-.33,1,2.57.69,5.26.7,7.91q0,43,0,86c0,9.95,2.32,12.49,12.26,12.51q58.47.17,117,0a27.08,27.08,0,0,0,6-.58c5.09-1.14,7-3.28,7.51-8.56a59.82,59.82,0,0,0,.13-6V114.09c0-13-1.28-14.23-14.32-14.23H148.54c-2,0-4-.06-6,.09-5.61.42-7.58,2.51-8,8.15-.35,4.61.83,9.34-1,13.84a3.22,3.22,0,0,1-3.6,1.1c-6.07-1.63-12.2-1.42-18.37-.88a3.45,3.45,0,0,1-3.16-1.14c-1.32-2.3-1.05-4.84-1.05-7.31q-.06-22.18,0-44.36c0-10.86,1.2-12,12-11.63.66,0,1.32.11,2,.1,1-.1,1.93,0,2.9,0q13.88-.29,27.75,0c18.08-.07,36.17-.48,54.24.25,4.71,2,6.6,5.73,6.6,10.63,0,5.71,2.9,7.76,8.22,5.74,5-1.92,9.37-.84,13.11,3,4.1,4.27,7.63,3.57,10-1.89,1.58-3.6,6.92-7.14,10.63-7,6.59.15,7.69-.94,7.59-7.62a2.41,2.41,0,0,1,.86-2.2,7.9,7.9,0,0,1,6.11-.23c4.13,4,4.64,7.39,1.06,11.59-2.67,3.12-2.39,5.13,1.14,7,2.93,1.55,3.93,4.22,4.27,7.38.45,4.23,1.64,5.08,5.9,4.12,3.32-.75,6.12-.46,8.66,2.1,2.28,2.3,4.5,1.7,6.15-.93C298.05,87.32,299.52,84.94,302.94,85.28Z"/><path class="cls-2" d="M6,131.19a75.32,75.32,0,0,1-3-28.41C4,90,8.87,79.16,19.94,71.85c4.81-3.18,10.4-3.95,16-4.71,4.61-1.78,8.77.21,12.86,1.78C58.53,72.65,65.66,79.65,71.61,88c4.57,7.23,8.07,14.9,9.51,23.4,0,6.81-3.07,12.77-5.23,19-4.58,1.94-7.2,6.58-11.73,8.61-2.89-.79-3.37-3.46-4.35-5.69-5.16-11.7-10.56-23.28-16-34.87,8,18.26,16.26,36.41,23.51,55a5,5,0,0,1-1.22,2.87C54.6,168,50.64,182.85,49.49,198.51c-.66,9.06-.84,18.26.56,27.36-1.52,13,.54,25.91,1.24,38.85-.42,4.21,1.44,8.33.52,12.56a2.75,2.75,0,0,1-.93,1.23c-4.22-.6-5.88-4.48-8.69-6.89-1.88-1.62-3.09-3.89-4.68-5.8-.87-1.34-1.73-2.7-2.64-4-1.65-2.45-3-5.09-4.73-7.5-1.78-3.07-2.73-6.52-4.39-9.65-1.1-2.47-1.81-5.08-2.8-7.59a61.6,61.6,0,0,1-2.54-10.46,36.78,36.78,0,0,1-1.13-6.34c-1.08-3.6-.76-7.29-.78-11-.06-2.28-.08-4.55,0-6.83a32.75,32.75,0,0,1,.92-10.06c.08-2.44.85-4.77,1.08-7.19,0-3.64,1.46-7.23.29-10.9-.29-2.07-.24-4.16-.39-6.24-.7-3.68-1.68-7.3-2.73-10.89a66.38,66.38,0,0,0-3.89-9.24C10.86,142.5,6.56,137.71,6,131.19Z"/><path class="cls-3" d="M75,130.39c1.09-6.52,5.13-12.29,4.94-19.15-.34-7.52-.19-15.06-1.16-22.54-.82-5.49-2.87-10.61-4.72-15.78-4.32-12-5.69-24.25-3.24-36.87a18,18,0,0,1,3-6.78c3-8.27,7-15.73,14-21.5,12.53-10.35,25.55-9.52,39.06-2.43,6.55,2.14,10.57,7.4,14.27,12.57,8.4,11.71,11.28,25.28,11.74,39.46a2.77,2.77,0,0,1-.77,1.79l-28.24,0c-3.43-7.4-4.32-15.55-6.79-23.24a34.31,34.31,0,0,1-1.1-3.71c1.79,9,6,17.53,6.09,27-2.83,0-5.66.24-8.48.08-3.47-.19-4.69,1.27-4.67,4.7.13,19.13.11,38.27.13,57.4.16,2-1.54,2.33-2.73,3.09-7.58,4.83-12.64,11.45-14.56,20.34a28.71,28.71,0,0,0,2.88,19.06c1.09,2.07,3.09,3.95,2.36,6.71-2.89,1.85-5.72.68-8.55-.17-6.09-1.48-7.84-7.54-11.85-11.22,0-2.73,1.09-5,3.75-5.76,4.58-1.28,4.66-4.45,4-8.15-.42-2.27-1.26-4.43-1.75-6.68a3.51,3.51,0,0,1,.8-2.24c1.31-1.87,2-4,.55-5.89s-3.21-.21-4.79.33C77.65,131.22,76.24,131.6,75,130.39Z"/><path class="cls-4" d="M152,59.16c-1.43-14.29-3.21-28.48-12-40.57A72.42,72.42,0,0,0,126.8,5.34c9.47-1.32,18.89-2.94,28.51-3.1A182.1,182.1,0,0,1,221.4,13.55c.77.28,1.58.46,2.37.68,1.73,5.61-3.89,11.93-10.28,11.57s-8.65,2.53-6.38,8.61c1.62,4.32.31,9.88-3,12.6-4.37,3.63-3.72,7.73,1.6,10.09,1,.44,2.42.47,2.17,2.16Z"/><path class="cls-5" d="M30.93,254.27c2.63,1.66,3,4.88,4.92,7-2.4,2.1-5.33,1.27-8.07,1.4-3,.14-6,0-8.93,0-2.72,0-4.36,1-4.42,4s1.57,4,4.33,4a82.91,82.91,0,0,1,8.92.06c4.83.47,8.79-.28,10.32-5.66l12,13c-1.22,1.47-3,1.43-4.58,1.44-3,0-4.1,1.43-4.08,4.33,0,3.18,1.82,3.89,4.5,3.89,2.14,0,4.35-.17,6.3,1.07,1.73,1.83,2.34,3.88,1.24,6.26-2.38,2.14-5.33,1.3-8.06,1.46-2.45.15-4.07,1-4.6,3.59-.6,2.82.15,4.5,3.34,4.61s6.61-.33,9.88.47a3.45,3.45,0,0,1,1.38.9,6.35,6.35,0,0,1,.91,3.23c-.11,2.53.22,5.24-2.48,6.83q-21.49,0-43,0c-7.41,0-9.25-2.53-8.13-9.8a71.27,71.27,0,0,0,.29-12c-.41-23,1.66-45.89,1.13-68.86-.1-4.08,1.31-8.18.83-12.36A147,147,0,0,1,4,177.16c.81-7.76,0-15.59.39-23.37.34-6.71,4-8.94,10.41-6.58l4,9.11c-2.55,1.69-2.83,4.34-2.86,7-.05,4.24,4.41,1.83,5.86,3.9v7.09a3.83,3.83,0,0,1-2.66,1.18c-2.54.17-3.89,1.23-3.93,4s1,4.4,3.92,4.53a4.21,4.21,0,0,1,2.67,1.18l-1,7.09a4.58,4.58,0,0,1-2.62,1.21,3,3,0,0,0-2.93,3.28c0,1.93.22,3.62,2.44,4.22a5.3,5.3,0,0,1,2.11,1.2v7.09c-2.27,1.39-4.88,2.1-4.7,5.91.19,4.17,3.77,3.42,5.7,5,.08,2.07-.09,4.18,1,6.09a6.09,6.09,0,0,1-3.64,1.37c-3,.42-2.88,2.67-2.85,4.87s1.32,3.19,3.46,3.3c1.8.1,3.68,0,5.12,1.41,1.76,2,1.71,4.8,2.91,7-2.23,2-5,1.25-7.56,1.38-2.76.14-4.45,1.28-4.49,4.12-.06,3.3,2.56,2.77,4.6,3C23.24,253.27,27.34,251.76,30.93,254.27Z"/><path class="cls-2" d="M207.9,59.26c-6.79-2.51-8.48-4.52-8-9.36A3.49,3.49,0,0,1,201.38,47c5.64-4.15,6.53-7.6,3.31-14.14-1.86-3.79,1.62-5.25,2.75-7.74.72-1.61,1.71-1.9,3.56-1.42,6.89,1.81,12-2.07,12.77-9.5,2.4-1.73,5.41-.75,8-1.83,1.59-.67,2.15,1.06,2.82,2.17,2.93,4.9,8.65,6.13,13.68,3.07,1.32-.8,2.89-2.13,4.32-.14,1.6,2.21,5.85,2.18,5,6.47-1.23,6.51,1.51,10.68,7.82,12.36,3.75,1,1.95,4.85,3.59,6.93,1,1.69.7,3.39-.86,4.29-4.69,2.73-5.13,7.16-5.19,11.83,2.05,3.35,1.29,6.22-1.14,9.13-2.21,2.63-4.6,1.7-7.18,1.14-2.93-.63-9.34,4-9.64,7.37-.24,2.73-1.44,4.18-3.83,4.11s-5.22,1.8-7.39-1.78c-3.18-5.24-8.08-6-13.42-3.09-3.18,1.76-10.21-1.64-9.19-4.76C212.9,66.27,209.88,63.07,207.9,59.26Z"/><path class="cls-2" d="M108.79,263.16v52.21l-9.88-1.06c-7.73-1.71-13-6.56-17-13.14-1.35-9.94-1.91-20-3.3-29.9-1.21-12.71-2.76-25.38-4.54-38a44,44,0,0,1-.53-8.42,51.33,51.33,0,0,1,2.07-20.93c.51-1.72.83-3.54,2.42-4.71a1.56,1.56,0,0,1,2,1c4.27,9.87,10.6,18.43,17,26.94C100.83,239.19,106.65,250.57,108.79,263.16Z"/><path class="cls-5" d="M303.07,248.31v-7.08c1.32-1.28,3-1.32,4.68-1.34,2.78,0,3.78-1.47,3.78-4.12s-1-4.08-3.77-4.11c-1.66,0-3.37-.06-4.69-1.35v-6.08c1.32-1.28,3-1.32,4.68-1.34,2.78,0,3.78-1.47,3.78-4.12s-1-4.08-3.77-4.11c-1.66,0-3.37-.06-4.69-1.35,0-2.36,0-4.72,0-7.08a5.22,5.22,0,0,1,4.17-1.28c3.68.22,4.36-2.08,4.66-5,.21-2.15-.58-3.1-2.66-3.25s-4.39.29-6.17-1.37v-6.08c1.62-1.53,3.69-1.33,5.65-1.37,2.77-.05,3.78-1.45,3.78-4.09s-1-4-3.78-4.09c-2,0-4,.17-5.65-1.37v-7.08c1.62-1.53,3.69-1.33,5.65-1.37,2.77-.05,3.78-1.45,3.78-4.09s-1-4-3.78-4.09c-2,0-4,.17-5.65-1.37v-9.08c5.44-2,10.82-3.09,15.87,1,2.06,1,2,2.85,2,4.72q0,78.45,0,156.9c0,4-1.59,6.41-5.81,6.42q-26,0-52,0a7.39,7.39,0,0,1-2.26-.8q16.2-.09,32.38-.16c9.35,0,9.35,0,9.81-9a4.48,4.48,0,0,1,3.11-1.23c4-.18,3.34-3.28,3.61-5.74.3-2.81-1.88-2.52-3.61-2.73a4.81,4.81,0,0,1-3.11-1.22v-6.08a4.37,4.37,0,0,1,3.12-1.23c3,0,4.44-1.27,4.38-4.47s-1.77-3.9-4.38-4a4.47,4.47,0,0,1-3.12-1.24v-7.08a3.29,3.29,0,0,1,2.69-.9c2.33.18,4.65.68,4.82-2.95.16-3.28-1-4.95-4.39-4.87a4.11,4.11,0,0,1-3.12-1.2v-7.08c1.15-1.17,2.67-1.25,4.15-1.29,3-.08,3.31-2.06,3.47-4.4.19-2.7-1.51-2.89-3.47-3C305.73,249.53,304.23,249.47,303.07,248.31Z"/><path class="cls-2" d="M302.94,85.28c-2.56,1.51-4.87,3-5.87,6.24-.78,2.51-5.67,2.82-7.15.56-2.2-3.35-5-3.35-8.23-2.17-4.32,1.57-7.34-.76-7.06-5.18.19-2.92-.8-5.3-3.87-6.66-5-2.24-5.25-4.93-1.26-8.69,3.31-3.12,2.15-6.66.4-10.12-1.18-3.84,1.54-4.88,4.27-5.58,1.86-.48,3.89.13,5.82-.33,1.72-.15,2.46-1.1,3-2.78,1.16-3.86,5.21-4.75,7.73-1.66s4.9,3.58,8.38,1.9a4.72,4.72,0,0,1,6.71,5c-.45,3.58,1.39,5.71,4,7.16,4.06,2.29,4.78,5.45,1.34,8.23-2.64,2.13-3.09,5.28-1.64,7.57,1.7,2.68.89,4.22-.66,6.06C307,87,305,86.42,302.94,85.28Z"/><path class="cls-6" d="M73.76,29.27c-5.41,17.88-2.22,35,4.52,51.8.91,2.27,2.06,4.54,1.49,7.14-2.94,2.29-5.92,1.87-8.92.13-2.58-2.79-5.13-5.59-7.73-8.35-7.38-7.84-16.65-11.73-27.21-12.85A149.55,149.55,0,0,1,73.76,29.27Z"/><path class="cls-7" d="M319,152.22c-5.18-2-10.59-.45-15.87-1q0-30.48,0-60.95c6.72,12,10.09,25.09,12.81,38.41C317.49,136.46,318.9,144.25,319,152.22Z"/><path class="cls-4" d="M14.83,147.21c-8.58.21-9,.56-8.9,9.06.19,19-1.7,38-1.08,57C2.37,207.1,1.81,200.48,1,194c-2.44-20.72-.43-41.21,4.3-61.47A6.69,6.69,0,0,1,6,131.19C8.85,136.58,11.24,142.23,14.83,147.21Z"/><path class="cls-8" d="M74.74,316.29l-5.92,0c-3.61-1.27-5.23-4.95-8.32-6.85a3.48,3.48,0,0,1-.75-3.35,4.87,4.87,0,0,1,1.07-.9c2.75-3.41,2.55-6.54-.68-10.48a12.08,12.08,0,0,1,0-7.81c1.27-1.82,2.66-.65,3.89,0a75.42,75.42,0,0,1,8.62,4.88,2.81,2.81,0,0,1,.48,3.62c-1.37,1.39-3.66.7-5,2s-1,3.41-.73,5.19,1.8,2.15,3.35,2.26a25.08,25.08,0,0,1,5,.39,3.88,3.88,0,0,1,1.37.77,5,5,0,0,1,.68,3.92C77,312.19,77.23,314.9,74.74,316.29Z"/><path class="cls-9" d="M280,53.35c-1.08,1.07-2.44,2.19-3.87,1.74-4-1.24-5.28,1.11-6.22,4.17l-6.91.12c-2.2-3.23-.87-9.47,2.63-11.38,2-1.1,3.59-2.21,3.42-4.74,1.26.81,2.57,1.53,3.75,2.44s2.16,2,3.12,2.85c1.22-.29.92-1.08,1-1.67.15-1.14,0-2.62,1.77-2.31,1.58.27.8,2,1.3,2.83C281.16,49.47,276.22,51.43,280,53.35Z"/><path class="cls-10" d="M94.82,316.33a32.55,32.55,0,0,0-11.79-7c-1.52-.43-1.92-1.6-2-3,.22-1.56.52-3.08,2-4a63,63,0,0,0,15.87,12.05A5.83,5.83,0,0,1,94.82,316.33Z"/><path class="cls-3" d="M132.83,122.32c0-5,0-10,.1-15,.07-6.08,2.82-9,8.73-9q64.23,0,128.46,0a8.56,8.56,0,0,1,8.72,7.8,31.33,31.33,0,0,1,.06,4q0,81.22,0,162.45c0,8.92-3.2,12.63-12.1,12.66q-61.47.21-123,0c-6.75,0-11.2-2.76-11.09-11.27.4-32.48.2-65,.23-97.46,3.92-6.88,8.42-7.55,12.06-1.79a34.08,34.08,0,0,1,.44,7.94q0,39.39,0,78.76c0,9.26.07,9.29,9.54,9.34,8.31,0,16.62-.16,24.92.1,25.17-.29,50.33-.05,75.5-.13,10.75,0,10.84-.1,10.84-10.9v-135c0-1.17,0-2.33,0-3.5-.17-5.71-.67-6.31-6.37-6.35-15.17-.08-30.33,0-45.5,0-11,0-22,.2-33-.12-10,.12-19.94-.06-29.91.09-5.34.08-5.89.75-6.07,6.14-.1,3,.28,6-.49,8.93-.44,1.25-1.4,2.25-2.56,1.27C139.08,128.37,134.72,126.67,132.83,122.32Z"/><path class="cls-3" d="M95.92,227.31c-6.93-8.6-13.82-17.22-17-28.08-2-4.24-.19-7.8,1.95-11.32a4.48,4.48,0,0,1,2.89-.52,53.13,53.13,0,0,0,21.72-1.54,3.56,3.56,0,0,1,3.34.33v52.11c-3.27,0-4.94-2.85-7.48-4.17C99.11,232.18,97.69,229.6,95.92,227.31Z"/><path class="cls-11" d="M303.08,160.31a38.05,38.05,0,0,0,5.45-.08c4.5-.67,5.54,1.27,5.54,5.54s-1,6.21-5.54,5.54a39.57,39.57,0,0,0-5.45-.08Z"/><path class="cls-11" d="M303.08,178.31a38.05,38.05,0,0,0,5.45-.08c4.5-.67,5.54,1.26,5.54,5.54s-1,6.21-5.54,5.54a41.21,41.21,0,0,0-5.45-.08Z"/><path class="cls-11" d="M303.08,195.31l3,0c8.64,0,9,.47,6.83,8.94-.43,1.71-1.4,2.06-2.84,2l-7,0Z"/><path class="cls-11" d="M303.07,230.31l3,0c6.71,0,8.51,2.42,6.84,9-.43,1.72-1.46,2-2.87,2-2.32,0-4.63,0-6.95,0Z"/><path class="cls-11" d="M303.07,213.31l3,0c6.71,0,8.51,2.42,6.84,9-.43,1.72-1.46,2-2.87,2-2.32,0-4.63,0-6.95,0Z"/><path class="cls-12" d="M95.92,227.31c2.6,1.38,4.12,3.84,6,6,3.82,6.51,5.58,13.7,6.89,21,0,2.95,0,5.9,0,8.85Z"/><path class="cls-11" d="M303.07,282.31l2.48,0c5.85,0,8.42,4,6.24,9.47-.57,1.44-1.61,1.49-2.77,1.51-2,0-4,0-5.95,0Z"/><path class="cls-13" d="M201.76,74.18c2.8-1.46,5.7-1.88,8,.55,2,2.07,3.27,4.62,1,7.46-1.77.39-3.44.93-4,3-6.32.18-8.76-2.59-7-7.9C203.94,78.37,200.72,75,201.76,74.18Z"/><path class="cls-11" d="M303.07,265.31l2.5,0c5.74,0,8.5,4.3,6.2,9.57-.73,1.67-2.07,1.47-3.34,1.32-1.8-.2-3.58-.61-5.36-.93Z"/><path class="cls-11" d="M303.07,248.31a21,21,0,0,0,3-.06c4.83-.76,7.27.3,6,6.06-.58,2.74-.93,4.31-4,4-1.64-.17-3.31-.05-5-.07Z"/><path class="cls-11" d="M303.07,299.31l1.49,0c7.07,0,9.1,2.81,6.12,9.37-1.53,3.37-5.07,1-7.61,1.58Z"/><path class="cls-14" d="M122,59.14a164.84,164.84,0,0,1-6.6-29.08c3.63,9.46,7.22,18.92,8.4,29.08Z"/><path class="cls-2" d="M108.77,254.31a131.59,131.59,0,0,1-6.89-21l6.92,5Z"/><path class="cls-15" d="M201.76,74.18a10.08,10.08,0,0,0,.81,1.2c1.18,1.28,2.2,3.21.77,4.2-1.71,1.17-2.54-1.13-3.48-2.31A3.4,3.4,0,0,1,201.76,74.18Z"/><path class="cls-15" d="M206.83,85.17c-.37-1.17-1.68-2.44-.17-3.51s2.81-.09,4.15.53C210.06,83.94,209,85.33,206.83,85.17Z"/><path class="cls-16" d="M38,265.19c-.19,7.09-.19,7.09-7.35,7.09-4.15,0-8.33-.33-12.43.07-4.68.47-5.48-1.56-5.43-5.7,0-3.89.75-5.74,5.16-5.46,5.95.37,11.93.11,17.9.12C36.51,262.64,38.06,263.47,38,265.19Z"/><path class="cls-12" d="M64,138.31c-1.42,3.59.8,8.82,5,11.91l-2.11,3.09c-4.83-7.74-7.42-16.51-11.24-24.72-5-10.64-9.47-21.47-14.16-32.23a7.81,7.81,0,0,1-.29-1.63c2.41-.28,2.73,1.65,3.37,2.93,5.88,11.85,11.48,23.84,16.61,36C61.89,135.34,62.39,137.18,64,138.31Z"/><path class="cls-17" d="M30.93,254.27c-4.63,0-9.27-.05-13.9,0-2.35,0-4.73-.12-4-3.28.58-2.52-.64-6.49,3.89-6.69,3.31-.15,6.62,0,9.93,0Q28.9,249.3,30.93,254.27Z"/><path class="cls-18" d="M50.75,278.31c.22,3.66,1.89,7.19,1,10.94a61,61,0,0,0-6.49.06c-4,.46-5.41-.85-5.51-5.15-.11-4.94,1.53-6.63,6.24-5.92a24.32,24.32,0,0,0,4,0Z"/><path class="cls-10" d="M70.85,88.34l8.92-.13a50.75,50.75,0,0,1,.14,23C78.43,103,74.47,95.73,70.85,88.34Z"/><path class="cls-19" d="M23.93,237.27c-2.29,0-4.59-.08-6.88,0s-3-1-3.18-3.23c-.54-7.81-.57-7.86,8-7.73Q22.89,231.8,23.93,237.27Z"/><path class="cls-20" d="M21.84,185.23a18.82,18.82,0,0,1-2.49,0c-1.74-.19-4.29.9-5-1.06-1-2.78-1.33-6.33.07-8.77s4.88-.81,7.43-1.1C24.54,178,21.17,181.59,21.84,185.23Z"/><path class="cls-20" d="M20.84,220.23c-6.74.08-8.71-2.44-6.86-8.95,1-3.4,3.84-1.51,5.86-2C20.32,212.94,19.07,216.72,20.84,220.23Z"/><path class="cls-21" d="M21.84,167.23l-.49,0c-6.83.07-9-3.34-6.3-9.57.84-1.89,2.42-1.23,3.79-1.36Z"/><path class="cls-20" d="M19.84,202.23c-5.43,0-8-3.6-5.71-8.41,1.43-3,4.45-1,6.71-1.5C19.73,195.54,19.91,198.9,19.84,202.23Z"/><path class="cls-22" d="M106.92,178.17l-10-8c-5.27-7.91-9.1-16.15-6-26-.6,8.5.72,16.59,6.25,23.34,3.57,4.36,7.84,8,13.84,8.77C110.67,179.2,108.48,178,106.92,178.17Z"/><path class="cls-23" d="M25.15,289.27a51.54,51.54,0,0,0-6.46,0c-4.49.57-6.1-1-5.92-5.69.15-3.92.86-5.73,5.22-5.43a122.57,122.57,0,0,0,15.92,0c4.64-.27,4.09,2.66,4,5.48-.09,2.64,1,6-3.8,5.65C31.14,289.09,28.14,289.28,25.15,289.27Z"/><path class="cls-7" d="M25.62,295.27a50.44,50.44,0,0,0,7-.06c4.62-.64,5.43,1.45,5.49,5.63.07,4.43-1.22,5.84-5.63,5.52a148.12,148.12,0,0,0-15.91-.06c-4.94.18-3.42-3.35-3.57-5.85s-.64-5.55,3.71-5.21c3,.23,6,.05,9,.05Z"/><path class="cls-24" d="M52.74,295.29c.71,3.65.76,7.43,2.2,10.94-4.29,0-8.58,0-12.87.06-2.37,0-3.11-1-3.19-3.26-.22-6,1.37-7.75,7.43-7.76Z"/><path class="cls-5" d="M242.14,63.78c-7.56,5-18.18,2.09-23-3.7-5.95-7.18-6-19.65.24-26.62s18.69-8.2,26.44-2.63c7.55,5.43,10.2,16.15,5.33,23.78,1.87-9.13.48-17-7.81-22.38-3.47-2.24-7.2-3.56-11.31-2.8C221.51,31.36,215.12,40.62,217,51,218.8,60.83,227.7,65.58,242.14,63.78Z"/><path class="cls-5" d="M234.54,39.27c4.94,0,8.2,3.08,8.32,7.81s-3.74,8.29-8.71,8.19-8.25-3.31-8.23-8C225.93,42.34,229.27,39.25,234.54,39.27Z"/><path class="cls-5" d="M301.57,75.93c-.35-8.58-1.18-16.77-12.4-16.57-5.32.1-10.06,5.29-10.23,10.48-.15,4.35,1.9,7.61,5.36,10.09s7.43.65,11.26,1.78c-5,4-11,3.05-15.8-2.1-4.58-4.86-4.43-13.58.32-19,4.12-4.69,12.46-5.53,17.76-1.8C303.76,63,305.57,70,301.57,75.93Z"/><path class="cls-5" d="M296,70.73c-.21,3-1.9,5.36-5.65,5.48a5.4,5.4,0,0,1-6-5.79,5.63,5.63,0,0,1,5.95-5.9C293.39,64.61,295.89,66.38,296,70.73Z"/><path class="cls-2" d="M68.86,274.38c0,6.13,2.86,11.78,3.14,17.86-4-1.38-7.45-3.73-11-6-.6-7.69.24-15.33.71-23V252C65.9,259,65.83,267.17,68.86,274.38Z"/><path class="cls-19" d="M72.75,295.29c1.52,3.52,1,7.64,3.26,10.95a34.27,34.27,0,0,0-4.42.06c-4.45.64-5.66-1.07-5.88-5.62C65.42,294.56,68.85,295,72.75,295.29Z"/><path class="cls-4" d="M60.83,306.25c.08-3.65.17-7.3.25-11,5.27.77,2.07,4.84,2.75,7.33C64.41,304.75,63.67,306.57,60.83,306.25Z"/><path class="cls-25" d="M180.89,113.39c27.48,0,55,0,82.42-.15,3.51,0,4.63,1.35,4.62,4.74q-.09,74.19,0,148.37c0,5.32-3.15,5.9-7.14,5.9q-33.72,0-67.43,0c-4.5,0-9-.07-13.49-.11a3,3,0,0,1-1-1.67c-.58-10.36-1.54-20.73.52-31.05,1.37-1.52,3.24-1.61,5.07-1.64,18.13-.27,36.22-1.58,54.35-2.05,9.39-.24,12.53-3.28,12.56-12.75q.07-18.5,0-37c0-9.79-2.38-12.2-12-12.2-16.3,0-32.62-.39-48.9.84-3,0-5.9-.14-8.29-2.33-1.2-1.11-2.73-.74-4.21-.8-4-.15-5.4-2.44-4.45-7,3.26-1,4.12-3.41,4-6.57-.1-4-.14-8,1-11.88,2.57-8.72,9.9-14.81,19-15.13s18.3-.33,27.44,0c9.8.35,17.7,8.77,18.33,19,.19,3.15-.24,6.33.37,9.45.32,1.62,1.21,2.82,3,2.73,1.58-.08,2.15-1.32,2.55-2.67,3.17-10.54-1.17-23.43-10-30a23.86,23.86,0,0,0-14.41-4.84c-9.48,0-19,0-28.43,0a26,26,0,0,0-10.56,2.64c-1.69.74-3.48,2.27-5.46.46C179.1,122.93,178.38,118.09,180.89,113.39Z"/><path class="cls-26" d="M179.91,239.44q0,16.35,0,32.72c-10,0-20,0-29.95.15-4.32.08-6.15-1.27-6.13-6,.16-31,0-61.9,0-92.86l14.15,7c1.58,2.18,1.46,4.71,1.46,7.21,0,13.16,0,26.32,0,39.48,0,8.74,3.05,11.54,11.79,11.67C174.12,238.84,177.18,237.19,179.91,239.44Z"/><path class="cls-26" d="M180.89,113.39l.06,15a2.64,2.64,0,0,1-1.06,2.61c-10.34,9.39-9.55,21.35-7.74,33.53.19,1.76-.77,2.87-2.23,1.88a32.16,32.16,0,0,0-12.62-4.79,2.22,2.22,0,0,1-1.68-1.66c-.64-2.67-3.48-3.4-4.71-5.52-1-.62-2.12-1.28-1.95-2.61,1-7.54-2.38-13.94-5.17-20.51,0-4.48.23-9,.07-13.44-.12-3.45,1.23-4.71,4.67-4.65C159.32,113.39,170.11,113.35,180.89,113.39Z"/><path class="cls-27" d="M179.91,239.44a46.4,46.4,0,0,1-12.22.82c-6.13-.29-9.76-4-9.77-10q0-24.9,0-49.8c9,4.63,17.91,9.39,27,13.84,6.39,3.13,12.47-.33,12.86-7-2.64-4.82-5-9.82-8.86-13.87,18-1.91,36.11-1,54.17-1.15,6.12,0,9.77,3.7,9.79,9.87q0,22.2,0,44.39c0,6.09-4.52,10.79-10.53,10.69-12.42-.21-24.81.92-37.21,1.33C196.76,238.85,188.31,238.77,179.91,239.44Z"/><path class="cls-28" d="M74.74,316.29l2-6a21,21,0,0,0,6.42-1.47c5,.79,9.28,2.66,11.63,7.53,1.2,1.81,1.83,3.24-1.42,3.18-5.25-.08-10.51-.16-15.76.08C74.91,319.71,74.81,318.17,74.74,316.29Z"/><path class="cls-29" d="M61,309.3c3.92.87,5.32,4.53,7.78,7,0,.61,0,1.21,0,1.81-4.59,2.06-9.21,3-13.91.32-1.18-.3-.92-1.36-1.16-2.16a16.86,16.86,0,0,0,1.27-7C57,309.63,59,310.75,61,309.3Z"/><path class="cls-22" d="M143.81,173.43c-5.08-4.32-7.44,1.2-10.82,3l-5,1.87a10.69,10.69,0,0,0-7.23-2.79c-1.84,0-4.27.17-4.25-2.89,1.19-1.9,3.17-1.49,4.93-1.65,10.68-.91,18.52-7.84,20-17.71,1.76-11.69-3.25-20.92-13.55-25a22.36,22.36,0,0,0-26.45,8.24c-5.65,8.21-4.76,20.24,2,27.75a22,22,0,0,0,7.42,4.93c1.79.83,3.85,1.18,5.2,2.83-.31,3.23-3.14,3.81-5.33,5.08-5.37.29-9.23-3-12.22-6.51-6.41-7.52-9.66-16.33-7.63-26.46,1.29-9.11,6.77-15.34,14-20.35,1.32-.92,2.75-1.68,4.12-2.51a44.84,44.84,0,0,1,23.85,1l11,9c4.39,4.11,5.79,9.51,6.36,15.19.25,2.48.23,5,1.27,7.31-1,5.89,2,8.85,7,11.57,11.82,6.52,24.32,11.69,35.92,18.6,1.55.93,3.3,1.65,4.22,3.4.35,6.61-6.07,10.83-13,8.4a58.58,58.58,0,0,1-10.26-5c-5.71-3.36-11.71-6.17-17.58-9.21C153.14,178.73,147.62,177.53,143.81,173.43Z"/><path class="cls-30" d="M108.8,186.18c-9.09,3.49-18.43,3.87-27.93,2.24-3.62,1.62-6.78-.34-10-1.39-1.76-.58-1.78-2.25-1.19-3.78,1.67-4.37,4.86-7.52,8.61-10.06,2.08-1.42,4.14,0,6.1.85,7,3,14,6.39,22,3.56,1.48-.62,3.35.14,4.59-1.31,1.12-2,3.51-2.42,5-4a.81.81,0,0,1,1,0c1,3.79,4,1.72,6.06,1.87,2.94.22,5.22.48,5,4.17-1,4.63-4.52,5.95-8.37,4.82C115.06,181.8,112.06,184,108.8,186.18Z"/><path class="cls-31" d="M83.82,175.22c-4.4-2.23-7.18-1-11.43,5.18a38.88,38.88,0,0,0-2.59,5.37l11.07,2.65q-1,5.4-2,10.81c-3.77,8-4.77,16.43-4.12,25.15a4.5,4.5,0,0,1-2.41,2.42c-7.93,2.33-15.84,3.78-23.32-1.43a8.66,8.66,0,0,1-1-2.73c-.27-16.13-1.1-32.36,4.92-47.82,2.88-7.38,6.36-14.47,12.82-19.56,3.77,1.33,6.85,4.65,11.32,4,2.24,1.09,4.42,2.27,5.25,4.84.89,2.78,3.21,3.89,5.57,5C87.8,172,86.62,174.15,83.82,175.22Z"/><path class="cls-32" d="M49.05,225.37c8.69,2.46,17.31,3.36,25.73-1,1.23,13.71,3,27.35,5,41a36.25,36.25,0,0,1-.07,6c-3,3.49-7.25,3.05-11.25,3.33-2.33-1.38-2.35-3.89-2.81-6.09-1.1-5.36-2.88-10.58-3.08-16.1,0,3.69,1.7,7.41-.43,11-3.84,1.91-7.78,3.11-12.09,1.79-2.09-9-.71-18.23-2-27.3A26.21,26.21,0,0,1,49.05,225.37Z"/><path class="cls-33" d="M50.08,265.28l11.66-2c.35.34.92.62.92,1.13,0,7.33.77,14.71-1.63,21.86q0,4.51,0,9c1.89,3.7,2.08,7.36-.25,11a2.36,2.36,0,0,0-.9.2,3.5,3.5,0,0,1-4.9-.27l-.09.05c-3.38-3.12-3.5-6.89-2.2-10.94.83-2.21-.64-4-1-6-1.53-3.54-2.66-7.12-1-10.95C51.67,273.91,49,269.69,50.08,265.28Z"/><path class="cls-34" d="M77.07,159.27c-.92,1.71-1.64,3.65-3.84,1a5.59,5.59,0,0,0-4.34-1.94c-2,0-2.92-1.17-3.14-3,.39-.65.78-1.3,1.16-1.95a4.25,4.25,0,0,1,1.87-3.58c1.11-.8.6-1.63.16-2.58-1.43-3.07-1-5.12,2.92-5.52,2.14-.21,2.87-2.95,5.19-3.15,1.92-.17,3.75-1.53,5.76-.34,2.91,3.67,3.23,8,3,12.41-.07,1.87-1.39,3.55-2.91,3.47C79,153.81,78.15,156.55,77.07,159.27Z"/><path class="cls-35" d="M82.81,138.14c-2.46.71-5.1,1.05-7.3,2.23-1.73.92-2.33,3.54-5.36,2.42-.91-.33-1.87,2.16-.6,3.52,1,1.07,2.34,1.81,3,3.71l-3.48.2c-5.06-1.78-7.87-8.41-5-11.91.84,0,2,0,2.15-.87.86-5,5.18-5.6,8.84-7,1.53-.35,3.14.15,4.59-1.17,1.64-1.48,3.94-3.18,5.53-.09,1.33,2.59,1.86,5.53-.74,7.93A13.64,13.64,0,0,1,82.81,138.14Z"/><path class="cls-36" d="M83.82,175.22c1.35-2,2.71-4.07,4.07-6.11,3,.42,5.88,1.77,9,1.06,3.83,2.05,7.92,3.78,10,8-4.7,3.88-9.64,1.53-14.41.35A75.59,75.59,0,0,1,83.82,175.22Z"/><path class="cls-30" d="M55,306.18l4.9.27L61,309.3c-2,4.77-4,3-6,0Z"/><path class="cls-37" d="M68.86,274.38c3.28-2.26,7.47-1.27,10.88-3.06,2.12,4.57,1,9.6,2,14.39,1.12,5.37.93,11,1.31,16.55a6.47,6.47,0,0,1-1.25,3.92,3.54,3.54,0,0,1-4.88.26,2.18,2.18,0,0,0-.9-.2c-3.82-2.84-4-6.75-3.26-10.95.11-1.1.58-2.29-.75-3.05C69.34,286.57,66.9,280.86,68.86,274.38Z"/><path class="cls-30" d="M76.91,306.44l4.88-.26c.42,1,.83,2.08,1.24,3.12-1.71,2.77-3.88,2.58-6.26,1C76.81,309,76.86,307.72,76.91,306.44Z"/><path class="cls-38" d="M116.92,172.27h-1c-15.71-3.84-19.47-12.66-19.63-22.86a23.38,23.38,0,0,1,31.6-22.56c9.57,3.73,16.46,10.9,15,25.2-1,9.75-6.49,16.67-17,19.75C122.89,172.67,119.89,172.07,116.92,172.27Z"/><path class="cls-38" d="M189,173.44c6.16,2.57,7.46,8.26,8.86,13.87q-21.13-11.12-42.29-22.21c-5.78-3-6.37-4.37-4.61-10.66,2.17,1.52,6.46.8,5.59,5.62-.17.94,1.47,1.62,2.66.45.81-.79,2.13-2,2.78-.51,1.72,4,7.54,1.81,8.84,6.15l1.06-.79a.88.88,0,0,1,1.16,0c.13,1.16,2.38.83,1.61,3s2.56,2.72,3,2.4c3-2.38,4.75-.79,6.37,1.6C185.28,174.27,187.36,172.73,189,173.44Z"/><path class="cls-2" d="M239.89,47c-1.12,2.78-2.14,5.6-5.79,5.25-3-.28-5-2.1-5-5.12,0-3.26,2.16-5.43,5.4-5.17C237.18,42.14,239.11,44.18,239.89,47Z"/><path class="cls-2" d="M289.74,67.42a3,3,0,0,1,3.43,2.68c.39,2.15-1.27,2.87-3,3.09s-3.08-.52-3.12-2.36S288.61,68.1,289.74,67.42Z"/><path class="cls-27" d="M173,165.33l-1.16,0c-.85-.51-1.84-1.06-1.84-2.13,0-10.49-1.77-21.28,5.91-30.38,1.52-1.81,4-2.27,5-4.46a32.29,32.29,0,0,1,19.66-5.22c8.13.46,16.32.25,24.48.06,13.19-.3,26.62,12.61,25.85,25.76-.17,3-.08,6,0,9,.08,3.23-.16,6.22-4.42,6.27s-4.56-2.72-4.67-6.06c-.14-4.26.7-8.53-.78-12.8-2.93-8.48-9.07-13.11-18-13.12q-12,0-24,0c-11.43,0-19.92,8.36-20.12,19.78a50.58,50.58,0,0,0,.05,7.49C179.62,164.38,177.41,165.9,173,165.33Z"/><path class="cls-39" d="M207.47,225.28c-4.19.59-6.16-1-4.66-5.88.47-1.52.39-3.22.8-4.85a8,8,0,0,0-2.33-8.54c-4.64-4.42-4.66-9.95-.61-14,3.74-3.74,10.87-3.9,14.94-.34,2.85,2.49,3.92,9.69.69,12.26-5.53,4.39-4.07,9.49-3.08,14.74C214.38,224.85,214.13,225.29,207.47,225.28Z"/><path class="cls-3" d="M109,148.11c-3.21.69-4.5-1.48-5.5-3.85s.88-3.47,2.42-4.64c1.48-1.51,2.7-1,3.81.48C110.54,142.87,110.86,145.6,109,148.11Z"/><path class="cls-40" d="M109,148.11l.06-7.88c3.45-.79,3.49,1.88,4.07,4C112.57,146.46,111.64,148.23,109,148.11Z"/><path class="cls-38" d="M113.08,144.25c-1.29-1.41-1.26-4.16-4.07-4-.82-1.37-2-1-3.14-.61C110.44,137.08,113.1,138.79,113.08,144.25Z"/></g></g></svg>