<svg xmlns="http://www.w3.org/2000/svg" viewBox="0 0 78.13 113.44"><defs><style>.cls-1,.cls-3,.cls-5{fill:none;}.cls-1{stroke:#000;stroke-miterlimit:10;stroke-width:7px;}.cls-1,.cls-4,.cls-5{stroke-linecap:round;}.cls-2{fill:#fff;}.cls-4{fill:blue;stroke:blue;stroke-width:4.01px;}.cls-4,.cls-5{stroke-linejoin:round;}.cls-5{stroke:#fff;stroke-width:2.49px;}</style></defs><title>msutube</title><g id="Layer_2" data-name="Layer 2"><g id="Layer_1-2" data-name="Layer 1"><line class="cls-1" x1="39.06" y1="3.5" x2="39.06" y2="109.94"/><line class="cls-1" x1="21.28" y1="25.32" x2="21.28" y2="88.12"/><line class="cls-1" x1="30.17" y1="30.71" x2="30.17" y2="82.73"/><line class="cls-1" x1="12.39" y1="48.79" x2="12.39" y2="64.65"/><line class="cls-1" x1="3.5" y1="53" x2="3.5" y2="60.44"/><line class="cls-1" x1="56.85" y1="88.12" x2="56.85" y2="25.32"/><line class="cls-1" x1="47.96" y1="82.73" x2="47.96" y2="30.71"/><line class="cls-1" x1="65.74" y1="64.65" x2="65.74" y2="48.79"/><line class="cls-1" x1="74.63" y1="60.44" x2="74.63" y2="53"/><path class="cls-2" d="M55.73,54.14,25.07,36.44A3,3,0,0,0,20.59,39v35.4A3,3,0,0,0,25.07,77l30.66-17.7A3,3,0,0,0,55.73,54.14Z"/><line class="cls-3" x1="22.16" y1="44.04" x2="24.69" y2="44.04"/><line class="cls-3" x1="22.16" y1="37.69" x2="24.69" y2="37.69"/><line class="cls-3" x1="22.16" y1="75.75" x2="24.69" y2="75.75"/><line class="cls-3" x1="22.16" y1="69.41" x2="24.69" y2="69.41"/><line class="cls-3" x1="22.16" y1="63.06" x2="24.69" y2="63.06"/><line class="cls-3" x1="22.16" y1="56.72" x2="24.69" y2="56.72"/><line class="cls-3" x1="22.16" y1="50.38" x2="24.69" y2="50.38"/><polygon class="cls-4" points="49.58 56.72 25.82 43 25.82 70.44 49.58 56.72"/><line class="cls-5" x1="26.76" y1="49.11" x2="28.28" y2="49.11"/><line class="cls-5" x1="26.76" y1="45.31" x2="28.28" y2="45.31"/><line class="cls-5" x1="26.76" y1="68.13" x2="28.28" y2="68.13"/><line class="cls-5" x1="26.76" y1="64.33" x2="28.28" y2="64.33"/><line class="cls-5" x1="26.76" y1="60.53" x2="28.28" y2="60.53"/><line class="cls-5" x1="26.76" y1="56.72" x2="28.28" y2="56.72"/><line class="cls-5" x1="26.76" y1="52.92" x2="28.28" y2="52.92"/></g></g></svg>