<svg xmlns="http://www.w3.org/2000/svg" xmlns:xlink="http://www.w3.org/1999/xlink" viewBox="0 0 556.34 364.67"><defs><style>.cls-1,.cls-23,.cls-25,.cls-29,.cls-7{fill:none;}.cls-2{clip-path:url(#clip-path);}.cls-3{fill:#5792e0;}.cls-4{fill:#3eb58a;}.cls-5{fill:#89f0cb;}.cls-6{opacity:0.2;}.cls-7{stroke:#3b70b8;}.cls-16,.cls-23,.cls-25,.cls-29,.cls-7{stroke-miterlimit:10;}.cls-16,.cls-7{stroke-width:2px;}.cls-8{fill:#d6e8ff;}.cls-9{fill:#3c6e7d;}.cls-10{fill:#fff;}.cls-11{fill:#e6e6e6;}.cls-12{fill:#63a6ff;}.cls-13{fill:#bad8ff;}.cls-14{fill:#ffff81;opacity:0.45;}.cls-15,.cls-16{fill:#f7d94c;}.cls-16{stroke:#fff;}.cls-17{fill:#3b70b8;}.cls-18{fill:#936644;}.cls-19{fill:#3c84d3;}.cls-20{fill:#91c0ff;}.cls-21{fill:#232323;}.cls-22{fill:#d14747;}.cls-23{stroke:#bd997c;}.cls-24{fill:#382563;}.cls-25{stroke:#154a59;}.cls-26{fill:#3b2f27;}.cls-27{fill:#59a1b8;}.cls-28{fill:#5438cc;}.cls-29{stroke:#3c1fb3;}.cls-30{fill:#b8b8b8;}.cls-31{fill:#3c1fb3;}.cls-32{fill:#a57b5e;}.cls-33{fill:#af8162;}</style><clipPath id="clip-path" transform="translate(0 -85.45)"><rect class="cls-1" x="39.81" width="500" height="500"/></clipPath></defs><title>signup</title><g id="Layer_2" data-name="Layer 2"><g id="OBJECTS"><g class="cls-2"><path class="cls-3" d="M0,436.57H556.33S558.65,113,485.33,109s-76.6,184.08-185,172S40,276.13,0,436.57Z" transform="translate(0 -85.45)"/><path class="cls-4" d="M250.34,436.81c6.79-46.38-9.39-73.91-28.62-77.32C202,356,188.63,348.74,182.66,317.36S173,254.09,151,258.23s-29.87,32.16-31.71,64.32S103.63,351,84.79,363.65c-14.72,9.85-4.19,54.23,1.12,73.16Z" transform="translate(0 -85.45)"/><path class="cls-5" d="M177.79,292c-.35-1.65-.73-3.26-1.11-4.84l-8.2,149.67h1.38Z" transform="translate(0 -85.45)"/><path class="cls-5" d="M107.54,351.07,118,436.81h1.39L108.81,350.1C108.4,350.43,108,350.76,107.54,351.07Z" transform="translate(0 -85.45)"/><path class="cls-5" d="M138.64,264c-.46.38-.91.78-1.34,1.19l5.43,171.61h1.38Z" transform="translate(0 -85.45)"/><path class="cls-5" d="M234.76,366.05c-.37-.32-.74-.65-1.12-1l-25.19,71.72h1.46Z" transform="translate(0 -85.45)"/><path class="cls-5" d="M188.31,436.81h1.41l17.66-81.29-1.29-.57Z" transform="translate(0 -85.45)"/><path class="cls-6" d="M228.94,401c-9-6.26-27.11,6.26-41.58,4.65s-10.8-46.63-31-46.63-18.61,51.46-34.69,51.69S107,388.37,93.86,395.88c-10.8,6.2-3.79,32.06-1,40.93H223.1C228.06,425,235.13,405.27,228.94,401Z" transform="translate(0 -85.45)"/><path class="cls-4" d="M354.66,436.81c-5.91-40.38,8.17-64.34,24.92-67.31,17.2-3.05,28.79-9.35,34-36.67s8.4-55.07,27.6-51.47,26,28,27.6,56,13.6,24.8,30,35.78c12.81,8.57,3.65,47.2-1,63.68Z" transform="translate(0 -85.45)"/><path class="cls-5" d="M417.81,310.74c.31-1.44.64-2.84,1-4.22l7.14,130.29h-1.21Z" transform="translate(0 -85.45)"/><path class="cls-5" d="M479,362.17l-9.09,74.64h-1.21l9.19-75.48Q478.4,361.77,479,362.17Z" transform="translate(0 -85.45)"/><path class="cls-5" d="M451.9,286.39c.4.33.78.68,1.16,1l-4.73,149.39h-1.2Z" transform="translate(0 -85.45)"/><path class="cls-5" d="M368.22,375.22c.33-.29.65-.57,1-.84l21.92,62.43h-1.27Z" transform="translate(0 -85.45)"/><path class="cls-5" d="M408.66,436.81h-1.23l-15.37-70.76c.37-.16.75-.32,1.12-.5Z" transform="translate(0 -85.45)"/><path class="cls-6" d="M373.29,405.6c7.8-5.45,23.59,5.45,36.19,4s9.4-40.6,27-40.6,16.2,44.8,30.2,45,12.8-19.4,24.2-12.87c9.4,5.4,3.3,27.91.87,35.63H378.38C374.05,426.54,367.9,409.36,373.29,405.6Z" transform="translate(0 -85.45)"/><line class="cls-7" x1="67.48" y1="351.36" x2="500.81" y2="351.36"/><rect class="cls-8" x="410.81" y="266.71" width="104.67" height="89.8"/><rect class="cls-9" x="410.81" y="266.71" width="104.67" height="14.33"/><rect class="cls-10" x="121.52" y="163.84" width="358.34" height="201.57" transform="translate(565.32 -121.52) rotate(90)"/><path class="cls-11" d="M355.77,396.25H245.62a11.77,11.77,0,0,1-11.77-11.77h0a11.77,11.77,0,0,1,11.77-11.77H355.77a11.77,11.77,0,0,1,11.77,11.77h0A11.77,11.77,0,0,1,355.77,396.25Z" transform="translate(0 -85.45)"/><polygon class="cls-12" points="360.5 298.17 355.5 298.17 355.5 293.17 353.79 293.17 353.79 298.17 348.79 298.17 348.79 299.88 353.79 299.88 353.79 304.88 355.5 304.88 355.5 299.88 360.5 299.88 360.5 298.17"/><rect class="cls-11" x="233.85" y="248.13" width="133.69" height="23.54" rx="11.77"/><polygon class="cls-12" points="360.5 259.05 355.5 259.05 355.5 254.05 353.79 254.05 353.79 259.05 348.79 259.05 348.79 260.75 353.79 260.75 353.79 265.75 355.5 265.75 355.5 260.75 360.5 260.75 360.5 259.05"/><rect class="cls-13" x="285.95" y="328.27" width="29.48" height="201.57" transform="translate(729.75 42.91) rotate(90)"/><rect class="cls-8" x="204.07" y="81.29" width="193.24" height="201.57" transform="translate(482.77 -204.07) rotate(90)"/><rect class="cls-14" x="287.67" y="-2.31" width="26.05" height="201.57" transform="translate(399.17 -287.67) rotate(90)"/><path class="cls-15" d="M281.41,92.81c0-4.25-6.82-7.36-15.8-7.36h-65.7V111.5h65.7c10.46,0,2.92-8.81,2.92-11.47S281.41,97.06,281.41,92.81Z" transform="translate(0 -85.45)"/><rect class="cls-6" x="299.5" y="11.91" width="2.38" height="201.57" transform="translate(188 327.93) rotate(-90)"/><circle class="cls-10" cx="300.69" cy="100.2" r="52.33"/><path class="cls-12" d="M300.69,238a52.13,52.13,0,0,0,35.06-13.48l-3.45-14.22a12.28,12.28,0,0,0-8.34-7.54L313.84,200a5.28,5.28,0,0,1-3.87-4.32l-.37-2.48c4.76-4.65,7.93-12.66,7.93-20.58,0-12.22-7.54-20.57-16.84-20.57s-16.83,8.35-16.83,20.57c0,7.92,3.16,15.93,7.92,20.58l-.37,2.48a5.28,5.28,0,0,1-3.86,4.32l-10.13,2.7a12.3,12.3,0,0,0-8.34,7.54l-3.44,14.22A52.1,52.1,0,0,0,300.69,238Z" transform="translate(0 -85.45)"/><path class="cls-10" d="M342.29,257.86H259.1a4.4,4.4,0,0,1-4.41-4.41h0A4.41,4.41,0,0,1,259.1,249h83.19a4.42,4.42,0,0,1,4.41,4.41h0A4.41,4.41,0,0,1,342.29,257.86Z" transform="translate(0 -85.45)"/><path class="cls-10" d="M344.49,267.28h-87.6a2.21,2.21,0,0,1-2.2-2.21h0a2.21,2.21,0,0,1,2.2-2.21h87.6a2.21,2.21,0,0,1,2.21,2.21h0A2.21,2.21,0,0,1,344.49,267.28Z" transform="translate(0 -85.45)"/><path class="cls-10" d="M232.94,428.57l-9.17-7-9.16,7h4v6.56a1.44,1.44,0,0,0,1.44,1.44h7.35a1.44,1.44,0,0,0,1.44-1.44v-6.56Z" transform="translate(0 -85.45)"/><path class="cls-10" d="M279.89,436.64l-.58-4.19a2.32,2.32,0,0,0-1.58-1.42l-1.91-.51a1,1,0,0,1-.73-.82l-.07-.47a5.63,5.63,0,0,0,1.5-3.88c0-2.31-1.43-3.89-3.18-3.89s-3.18,1.58-3.18,3.89a5.63,5.63,0,0,0,1.5,3.88l-.07.47a1,1,0,0,1-.73.82L269,431a2.32,2.32,0,0,0-1.58,1.42l-.58,4.19Z" transform="translate(0 -85.45)"/><circle class="cls-10" cx="322.83" cy="341.09" r="5.25"/><rect class="cls-10" x="320.22" y="347.29" width="5.22" height="4.07"/><rect class="cls-10" x="368.16" y="423.04" width="12.04" height="12.04" rx="2.31" transform="translate(-193.79 304.8) rotate(-45)"/><path class="cls-15" d="M355.77,318H245.62a11.77,11.77,0,0,1-11.77-11.77h0a11.77,11.77,0,0,1,11.77-11.77H355.77a11.77,11.77,0,0,1,11.77,11.77h0A11.77,11.77,0,0,1,355.77,318Z" transform="translate(0 -85.45)"/><line class="cls-16" x1="252.53" y1="217.36" x2="348.86" y2="217.36"/><line class="cls-16" x1="286.57" y1="224.19" x2="348.86" y2="224.19"/><path class="cls-6" d="M367.54,345.35a11.77,11.77,0,0,0-11.77-11.77H245.62a11.77,11.77,0,0,0-11.77,11.77h0a11.17,11.17,0,0,0,.06,1.17,11.76,11.76,0,0,1,11.71-10.6H355.77a11.78,11.78,0,0,1,11.71,10.6,11.17,11.17,0,0,0,.06-1.17Z" transform="translate(0 -85.45)"/><path class="cls-6" d="M355.77,372.71H245.62a11.77,11.77,0,0,0-11.77,11.77h0a11.46,11.46,0,0,0,.06,1.17A11.76,11.76,0,0,1,245.62,375H355.77a11.78,11.78,0,0,1,11.71,10.61,11.46,11.46,0,0,0,.06-1.17h0A11.77,11.77,0,0,0,355.77,372.71Z" transform="translate(0 -85.45)"/><rect class="cls-6" x="432.12" y="266.71" width="18.77" height="89.8"/><rect class="cls-6" x="474.37" y="266.71" width="18.77" height="89.8"/><path class="cls-15" d="M452.66,335.25,442,437.39c-.63,6-6.41,10.91-12.91,10.91h0c-6.51,0-11.26-4.88-10.63-10.91l10.71-102.14c.63-6,6.41-10.92,12.92-10.92h0C448.54,324.33,453.29,329.22,452.66,335.25Z" transform="translate(0 -85.45)"/><line class="cls-16" x1="427.44" y1="345.53" x2="436.8" y2="256.2"/><line class="cls-16" x1="437.58" y1="313.96" x2="443.64" y2="256.2"/><path class="cls-15" d="M494.91,335.25,484.2,437.39c-.63,6-6.41,10.91-12.91,10.91h0c-6.51,0-11.26-4.88-10.63-10.91l10.71-102.14c.63-6,6.41-10.92,12.92-10.92h0C490.79,324.33,495.54,329.22,494.91,335.25Z" transform="translate(0 -85.45)"/><line class="cls-16" x1="469.69" y1="345.53" x2="479.05" y2="256.2"/><line class="cls-16" x1="479.83" y1="313.96" x2="485.89" y2="256.2"/><path class="cls-17" d="M145.5,420.08v8.07s5.62,14.15,4.21,19-21.52,2.46-30.53,2.46,1.76-6.2,6.08-10.41,9.36-8.31,9.25-19.07Z" transform="translate(0 -85.45)"/><path class="cls-17" d="M186.75,420.08v8.07s-5.61,14.15-4.21,19,21.53,2.46,30.53,2.46-1.75-6.2-6.08-10.41-9.36-8.31-9.24-19.07Z" transform="translate(0 -85.45)"/><path class="cls-18" d="M134.51,420.08c.06,6.39-1.69,10.43-4,13.54l16.39-1.73c-.77-2.22-1.37-3.74-1.37-3.74v-8.07Z" transform="translate(0 -85.45)"/><path class="cls-18" d="M202.64,434.7c-2.76-3.25-5-7.46-4.89-14.62h-11v8.07s-.67,1.69-1.49,4.09Z" transform="translate(0 -85.45)"/><path class="cls-9" d="M188,265.47a1387.1,1387.1,0,0,1,13.55,158h-18.5s-10.13-67.09-19.63-105.59L150.67,423.48h-20.5l5.17-158Z" transform="translate(0 -85.45)"/><path class="cls-6" d="M135,276.21c18.53,6.68,41.23-1.6,53.52-7.38-.33-2.2-.51-3.36-.51-3.36H135.34Z" transform="translate(0 -85.45)"/><path class="cls-17" d="M128.34,193c-4.67,3.92-14.79,20.29-24.67,50.17,0,0,4.5,7.12,18.75,9l15.13-25.92Z" transform="translate(0 -85.45)"/><path class="cls-18" d="M101.92,251.26s-8.12,26.88,0,64.88l9.5-4.63s-3.49-17.37,6.13-54Z" transform="translate(0 -85.45)"/><path class="cls-6" d="M100.92,255.39c2.64,2.59,8.11,7.16,15,8.56.49-2.08,1-4.22,1.61-6.44l-15.63-6.25S101.49,252.71,100.92,255.39Z" transform="translate(0 -85.45)"/><path class="cls-18" d="M212.67,153.05S240.09,134.3,253.34,122c0,0,3.5-10.92,9.5-12.5s10.08,1.08,10.58,4.17-.67,11-15.42,17.39c0,0-24,28.52-37.41,39.86Z" transform="translate(0 -85.45)"/><path class="cls-6" d="M220.59,170.89c1.46-1.24,3.06-2.69,4.73-4.28-.78-7.07-6.27-13.29-9.07-16-2.23,1.56-3.58,2.48-3.58,2.48Z" transform="translate(0 -85.45)"/><path class="cls-18" d="M157.05,136.26c4.06,3.31,11.68,13.5,11.68,13.5l-2.81,2.75s3.56,8.38,2.19,11.88-5.81,5.06-5.81,5.06l2.37,6.56-15.37,5.81-2.43-8.27-1.64-21.48,2.07-12.68Z" transform="translate(0 -85.45)"/><path class="cls-19" d="M128.34,193s15-13.08,43.5-21.21a135.87,135.87,0,0,0,32.5-14.46s11,5.84,11,22.17l-20.5,20.83s-3.17,50.17-6.84,65.17c0,0-22.66,7.67-42.5,6s-12-7-11.33-15.17S128.34,193,128.34,193Z" transform="translate(0 -85.45)"/><path class="cls-20" d="M103,240.51s7.57,8.31,21.94,10.81l-3.59,7.1a3.32,3.32,0,0,1-3.42,1.77c-3.92-.55-11.82-2.16-16.81-6.6a3.22,3.22,0,0,1-.9-3.3Z" transform="translate(0 -85.45)"/><path class="cls-20" d="M200.55,159.55s-.75-3,1.12-4.6,9.25-5.19,9.25-5.19,14.31,5.69,11.63,25.69c0,0-5.19,5.06-6.38,6.5s-3.48.21-3.48.21Z" transform="translate(0 -85.45)"/><path class="cls-21" d="M151.17,140.82l2.25,11.07s-2.87-2.44-4.62-.57.5,5.82,2.31,7.32a2.59,2.59,0,0,0,3.44,0l.5,4.75L147,174.26s-.37-3.87-2.93-6-8.44-1.75-13.38-15.94Z" transform="translate(0 -85.45)"/><path class="cls-17" d="M215.34,179.47c0-16.33-11-22.17-11-22.17a130.07,130.07,0,0,1-15.07,8h0a84.81,84.81,0,0,1,5.57,35Z" transform="translate(0 -85.45)"/><path class="cls-6" d="M157.05,136.26l-9.75,3.13-.65,4-16,9c.1.29.2.55.3.83,3.88-.35,15.4-2.18,31-11.85A47,47,0,0,0,157.05,136.26Z" transform="translate(0 -85.45)"/><path class="cls-22" d="M159.3,132.51c3.75-1.81,7.87-2.37,8.87-1.25S154.92,141.45,147,146.07s-17.06,8.32-20.81,5.13.13-14,8.11-19.22C149.12,122.19,159.3,132.51,159.3,132.51Z" transform="translate(0 -85.45)"/><path class="cls-22" d="M138.61,150.28a69,69,0,0,0,8.37-4.21c7.94-4.62,22.19-13.68,21.19-14.81s-5.12-.56-8.87,1.25C159.3,132.51,148.81,144.43,138.61,150.28Z" transform="translate(0 -85.45)"/><path class="cls-23" d="M159.68,156.81a14.42,14.42,0,0,0,7,.49" transform="translate(0 -85.45)"/><ellipse class="cls-24" cx="158.59" cy="59.25" rx="1.29" ry="2.13"/><path class="cls-25" d="M163.78,287.89l18-1.75v7.5a5.2,5.2,0,0,1-4.73,5.18l-6.88.61a4.71,4.71,0,0,1-5-3.88Z" transform="translate(0 -85.45)"/><path class="cls-25" d="M139.49,288.69h18v5.08a6.46,6.46,0,0,1-6.46,6.46H146.3a6.46,6.46,0,0,1-6.45-6Z" transform="translate(0 -85.45)"/><path class="cls-6" d="M151.28,316.14,156.4,376l7-58.14C156.12,316.67,151.28,316.14,151.28,316.14Z" transform="translate(0 -85.45)"/><line class="cls-25" x1="130.47" y1="328.86" x2="151.78" y2="328.86"/><line class="cls-25" x1="181.62" y1="328.86" x2="201.27" y2="328.86"/><rect class="cls-26" x="264.24" y="96.74" width="13.17" height="6.58" transform="translate(61.19 -183.93) rotate(23.17)"/><path class="cls-27" d="M263.15,100.33l-1.08,2.52a4,4,0,0,0,1.2,4.7l1,.77a1.81,1.81,0,0,1,.54,2.11l-.62,1.43a1.45,1.45,0,0,0,.77,1.9h0a1.44,1.44,0,0,0,1.9-.76l.61-1.43a1.79,1.79,0,0,1,1.9-1.06l1.23.17a4,4,0,0,0,4.24-2.37l1.07-2.52Z" transform="translate(0 -85.45)"/><path class="cls-28" d="M265.56,95.58c1.05,1,1.82,2.93,3.3,3.42,1.77.58,4.14-.65,5.48,1,1.09,1.29,1.13,2.48,2.24,3.37l1.59-3.72-12.11-5.18Z" transform="translate(0 -85.45)"/><rect class="cls-6" x="268.65" y="96.7" width="1.25" height="13.87" transform="translate(68.06 224.98) rotate(-66.83)"/><ellipse class="cls-29" cx="108.55" cy="240.63" rx="16.2" ry="16.04"/><path class="cls-10" d="M91.84,327.77l2.5,33.17c0,1.06,6.36,1.91,14.21,1.91s14.21-.85,14.21-1.91l2.5-33.17Z" transform="translate(0 -85.45)"/><path class="cls-30" d="M125.26,327.77c0,1.29-7.48,2.33-16.71,2.33s-16.71-1-16.71-2.33,7.48-2.33,16.71-2.33S125.26,326.48,125.26,327.77Z" transform="translate(0 -85.45)"/><path class="cls-30" d="M125.26,327.77c0,1.29-7.48,2.33-16.71,2.33s-16.71-1-16.71-2.33,7.48-2.33,16.71-2.33S125.26,326.48,125.26,327.77Z" transform="translate(0 -85.45)"/><path class="cls-31" d="M94.09,328.94a71.91,71.91,0,0,0,14.46,1.16A71.79,71.79,0,0,0,123,328.94a70.9,70.9,0,0,0-14.45-1.17A71,71,0,0,0,94.09,328.94Z" transform="translate(0 -85.45)"/><path class="cls-10" d="M108.55,330.1c-9.23,0-16.71-1-16.71-2.33l2.5,33.17c0,1.06,6.36,1.91,14.21,1.91s14.21-.85,14.21-1.91l2.5-33.17C125.26,329.06,117.78,330.1,108.55,330.1Z" transform="translate(0 -85.45)"/><path class="cls-8" d="M92.86,341.23l1.48,19.71c0,1.06,6.36,1.91,14.21,1.91s14.21-.85,14.21-1.91l1.48-19.71c-2.33.9-8.46,1.54-15.69,1.54S95.19,342.13,92.86,341.23Z" transform="translate(0 -85.45)"/><path class="cls-32" d="M104.55,305.39l7.75-2.94a12.22,12.22,0,0,1,2.87,8.12c-.19,4.82-7.19,7.25-13.25,5.57a9.11,9.11,0,0,0,1-7.41A2.76,2.76,0,0,1,104.55,305.39Z" transform="translate(0 -85.45)"/><path class="cls-33" d="M105.8,304.7c-1.27-3,3.87-5.19,5.93-4.25s.67,2.83,0,3.31C110.52,304.64,106.36,306,105.8,304.7Z" transform="translate(0 -85.45)"/></g></g></g></svg>